<svg xmlns="http://www.w3.org/2000/svg" viewBox="0 0 64 64">
  <defs>
    <radialGradient id="bg" cx="32%" cy="28%" r="78%">
      <stop offset="0%" stop-color="#3a1f10" />
      <stop offset="58%" stop-color="#160c08" />
      <stop offset="100%" stop-color="#080403" />
    </radialGradient>
    <linearGradient id="ring" x1="0" y1="0" x2="1" y2="1">
      <stop offset="0%" stop-color="#fff3bf" />
      <stop offset="35%" stop-color="#f3cd6d" />
      <stop offset="72%" stop-color="#bf7f1f" />
      <stop offset="100%" stop-color="#7a4b11" />
    </linearGradient>
    <linearGradient id="spade" x1="0" y1="0" x2="0" y2="1">
      <stop offset="0%" stop-color="#fff6d3" />
      <stop offset="28%" stop-color="#f2cd72" />
      <stop offset="68%" stop-color="#cf8d28" />
      <stop offset="100%" stop-color="#8e5813" />
    </linearGradient>
  </defs>

  <rect width="64" height="64" rx="14" fill="#120907" />

  <circle cx="32" cy="32" r="17.5" fill="url(#bg)" />
  <circle cx="32" cy="32" r="17.5" fill="none" stroke="url(#ring)" stroke-width="3.2" />
  <circle cx="32" cy="32" r="14.3" fill="none" stroke="#fff0b5" stroke-opacity="0.35" stroke-width="1" />

  <path
    fill="url(#spade)"
    d="M32 18
       C27.5 18 24 21.5 24 25.8
       C24 29.6 26.6 32.2 29.9 33.8
       C27.4 33.8 25.3 34.6 23.7 36.3
       C21.8 38.4 22.7 41.7 26.3 41.9
       H29.8
       L27.8 47
       H36.2
       L34.2 41.9
       H37.7
       C41.3 41.7 42.2 38.4 40.3 36.3
       C38.7 34.6 36.6 33.8 34.1 33.8
       C37.4 32.2 40 29.6 40 25.8
       C40 21.5 36.5 18 32 18Z"
  />

  <path d="M23 23 L26 20" stroke="#fff7d9" stroke-width="1.5" stroke-linecap="round" opacity="0.9" />
  <circle cx="42.5" cy="21.5" r="1.8" fill="#fff7d9" />
</svg>
